<svg width="107" height="36" viewBox="0 0 107 36" fill="none" xmlns="http://www.w3.org/2000/svg">
<path d="M4.76 12.765H6.64C10.15 12.765 12.7 10.325 12.7 6.83501C12.7 3.34501 10.15 0.91501 6.64 0.91501H0V17.405H4.76V12.765V12.765ZM4.76 8.67501V4.99501H6.02C7.05 4.99501 7.79 5.77501 7.79 6.83501C7.79 7.89501 7.05 8.67501 6.02 8.67501H4.76ZM14.39 17.405H19.19V12.095H20.15L23.3 17.405H28.63L24.52 11.085C26.38 10.285 27.6 8.46501 27.6 6.51501C27.6 3.32501 25.21 0.90501 21.65 0.90501H14.39V17.405V17.405ZM19.19 8.19501V4.90501H21.03C21.97 4.90501 22.68 5.61501 22.68 6.55501C22.68 7.49501 21.97 8.18501 21.03 8.18501H19.19V8.19501ZM37.76 0.63501C32.55 0.63501 29.08 4.47501 29.08 9.15501C29.08 13.835 32.53 17.675 37.74 17.675C42.95 17.675 46.45 13.835 46.45 9.15501C46.45 4.47501 42.98 0.63501 37.76 0.63501ZM37.76 5.06501C40.15 5.06501 41.53 6.87501 41.53 9.15501C41.53 11.435 40.15 13.245 37.76 13.245C35.37 13.245 33.99 11.435 33.99 9.15501C33.99 6.87501 35.37 5.06501 37.76 5.06501ZM60.56 11.915C59.53 12.715 58.1 13.175 56.75 13.175C54.27 13.175 52.68 11.585 52.68 9.15501C52.68 6.72501 54.38 5.04501 56.98 5.04501C58.27 5.04501 59.53 5.45501 60.43 6.17501V1.53501C59.44 0.96501 58.04 0.63501 56.55 0.63501C51.47 0.63501 47.73 4.33501 47.73 9.31501C47.73 14.295 51.34 17.675 56.23 17.675C58.02 17.675 59.42 17.305 60.57 16.545V11.905L60.56 11.915ZM76.95 0.91501H72.15V10.465C72.15 12.215 71.23 13.195 69.76 13.195C68.29 13.195 67.37 12.205 67.37 10.465V0.91501H62.57V10.855C62.57 14.695 65.4 17.675 69.76 17.675C74.12 17.675 76.95 14.685 76.95 10.855V0.91501ZM79.53 17.405H84.33V12.095H85.29L88.44 17.405H93.77L89.66 11.085C91.52 10.285 92.74 8.46501 92.74 6.51501C92.74 3.32501 90.35 0.90501 86.79 0.90501H79.53V17.405V17.405ZM84.33 8.19501V4.90501H86.17C87.11 4.90501 87.82 5.61501 87.82 6.55501C87.82 7.49501 87.11 8.18501 86.17 8.18501H84.33V8.19501ZM95.37 17.405H106.81V13.315H100.12V11.085H105.17V7.13501H100.12V4.99501H106.42V0.91501H95.37V17.405ZM0 35.085H4.8V18.595H0V35.085ZM17.35 31.965L20.59 26.705V35.095H25.35V18.595H21.08L16.46 26.195L11.84 18.595H7.56V35.085H12.32V26.695L15.56 31.955H17.35V31.965ZM32.85 30.445H34.73C38.24 30.445 40.79 28.005 40.79 24.515C40.79 21.025 38.24 18.585 34.73 18.585H28.09V35.075H32.85V30.435V30.445ZM32.85 26.355V22.675H34.11C35.14 22.675 35.88 23.455 35.88 24.515C35.88 25.575 35.14 26.355 34.11 26.355H32.85ZM39.68 35.085H44.53L45.63 32.025H50.82L51.92 35.085H56.77L50.5 18.595H45.95L39.68 35.085V35.085ZM46.87 28.145L48.23 24.005L49.59 28.145H46.88H46.87ZM69.37 29.595C68.34 30.395 66.91 30.855 65.56 30.855C63.08 30.855 61.49 29.265 61.49 26.835C61.49 24.405 63.19 22.725 65.79 22.725C67.08 22.725 68.34 23.135 69.24 23.855V19.215C68.25 18.645 66.85 18.315 65.36 18.315C60.28 18.315 56.54 22.015 56.54 26.995C56.54 31.975 60.15 35.355 65.04 35.355C66.83 35.355 68.23 34.985 69.38 34.225V29.585L69.37 29.595ZM74.72 35.085H79.52V22.815H83.77V18.585H70.47V22.815H74.72V35.085Z" fill="#393747"/>
</svg>
