<svg width="17" height="16" viewBox="0 0 17 16" fill="none" xmlns="http://www.w3.org/2000/svg">
<path fill-rule="evenodd" clip-rule="evenodd" d="M6.40479 2C4.19565 2 2.40479 3.79086 2.40479 6C2.40479 8.20914 4.19565 10 6.40479 10C8.61392 10 10.4048 8.20914 10.4048 6C10.4048 3.79086 8.61392 2 6.40479 2ZM0.404785 6C0.404785 2.68629 3.09108 0 6.40479 0C9.71849 0 12.4048 2.68629 12.4048 6C12.4048 7.29583 11.994 8.49572 11.2955 9.47653L16.1119 14.2929C16.5024 14.6834 16.5024 15.3166 16.1119 15.7071C15.7214 16.0976 15.0882 16.0976 14.6977 15.7071L9.88132 10.8907C8.9005 11.5892 7.70062 12 6.40479 12C3.09108 12 0.404785 9.31371 0.404785 6Z" fill="#9CA3AF"/>
</svg>
